<?xml version="1.0" encoding="utf-8"?>
<!-- Generator: Adobe Illustrator 23.0.3, SVG Export Plug-In . SVG Version: 6.00 Build 0)  -->
<svg version="1.1" id="a51d4639-2054-454d-a26d-938e218c2a6d"
	 xmlns="http://www.w3.org/2000/svg" xmlns:xlink="http://www.w3.org/1999/xlink" x="0px" y="0px" viewBox="0 0 890 729.8"
	 style="enable-background:new 0 0 890 729.8;" xml:space="preserve">
<style type="text/css">
	.st0{fill:#2F2E41;}
	.st1{fill:#E6E6E6;}
	.st2{fill:#6C63FF;}
	.st3{fill:#FFFFFF;}
	.st4{fill:#FFB8B8;}
	.st5{opacity:0.2;enable-background:new    ;}
	.st6{fill:#3F3D56;}
	.st7{fill:#FFB6B6;}
</style>
<path class="st0" d="M219.7,665.9l1.8,38.2l0,0c0.6,13.4-9.7,24.8-23.2,25.5l-0.8,0l-3-62.5L219.7,665.9z"/>
<path class="st1" d="M762.2,601.4c-18.2,35.5-41.2,69.8-70.4,100.8c-0.6,0.7-1.3,1.4-2,2.1l-69.1-32.7c0.4-0.7,0.9-1.5,1.4-2.4
	c29.7-50.8,208.9-360.6,203.2-430.8C826,244.3,847.2,435.7,762.2,601.4z"/>
<path class="st1" d="M705.1,708.5c-1,0.5-2,1.1-3,1.6l-51.8-24.5c0.7-0.5,1.6-1.1,2.5-1.8c15.9-11.4,63.1-45.6,109.3-82.4
	c49.7-39.5,98.2-82,105.4-102.2C866.1,503.8,820.6,645.1,705.1,708.5z"/>
<circle class="st2" cx="86.2" cy="648.1" r="80"/>
<path class="st3" d="M118.3,614.5H54.2c-5.9,0-10.7,4.8-10.7,10.7v45.8c0,5.9,4.8,10.7,10.7,10.7h64.1c5.9,0,10.7-4.8,10.7-10.7
	v-45.8C129,619.3,124.2,614.5,118.3,614.5z M118.3,620.6c0.4,0,0.8,0.1,1.1,0.1l-33.2,26.5l-33-26.5c0.3-0.1,0.6-0.1,0.9-0.1H118.3z
	 M118.3,675.5H54.2c-2.5,0-4.6-2.1-4.6-4.6v-45.4l34.7,27.9c1.1,0.9,2.7,0.9,3.8,0l34.7-27.7v45.1
	C122.9,673.5,120.8,675.5,118.3,675.5z"/>
<path class="st4" d="M395,532.6l17.9,0.1c6.9,0.1,12.5-5.5,12.6-12.4c0-0.7,0-1.4-0.2-2.1l0,0c-1.1-6.8-7.5-11.4-14.3-10.3
	c-1.2,0.2-2.4,0.6-3.5,1.1l-16.9,8.3l-57.7,12.9L308.1,505l-14.2,23.4l33.4,25.8L395,532.6z"/>
<path class="st0" d="M391.6,717.5l-21.1,4.1c-14.4-45.4-30-88.4-30-121.7c-20.4,22.7-45.7,35.7-75.4,39.7l3.2-50.3l24.3-13
	l37.2-17.2c3.3-1.5,6.8-2.4,10.4-2.6l0,0c14.4-0.8,27.1,9.5,29.4,23.8L391.6,717.5z"/>
<path class="st0" d="M290.6,633.5l-8.4,6.4c-7.4,5.6-17.1,6.9-25.7,3.3l0,0c-24.1-18-41.2-12.7-56.7,14.5
	c-18.6-21-23.2-51.3-6.6-82.7l92.1,2l18.7-5.7L290.6,633.5z"/>
<path class="st0" d="M260,727.5L260,727.5c-10.9,3.4-22.6-1.6-27.8-11.7c-8.3-7.3-15.3-17.7-21.3-30.4c-4.3-9.3-8.1-18.9-11.2-28.7
	c-4.2-12.9,2.8-27.1,15.9-30.9c0.4-0.1,0.8-0.2,1.2-0.3c17.4-4.5,35.3,5.6,41.2,22.5l17.3,49.3c4.3,12.3-2.1,25.7-14.4,30h0
	C260.5,727.3,260.3,727.4,260,727.5z"/>
<path class="st5" d="M207.9,679.8c0,0,20.3,22.7,24.3,35.7"/>
<path class="st4" d="M129.2,572.6l-6.8,16.6c-2.6,6.4,0.4,13.6,6.8,16.2c0.6,0.3,1.3,0.5,2,0.6l0,0c6.7,1.5,13.4-2.7,14.9-9.4
	c0.3-1.2,0.4-2.5,0.3-3.7l-1.5-18.8l9.5-58.4l32.7-13.6l-16.4-21.9l-36.3,21.4L129.2,572.6z"/>
<path class="st2" d="M291.4,575.1c-23.3,39.1-69.8,54.3-109.6,23.7c7-23,29.6-86.6,15-89c-31,13-31-17.5-36.8-32.8l70.6-26
	l38.1,10.5l7.8,2.8c10.4,3.7,17.4,13.5,17.6,24.5C278.1,512,266.3,536.7,291.4,575.1z"/>
<path class="st2" d="M300.4,543.5l-28-23.1l9.3-53.9l38.1,40.6L300.4,543.5z"/>
<path id="bc7f4772-a479-43ba-84b6-0038831d0625" class="st6" d="M764.7,172.9h-4V63.4c0-35-28.4-63.4-63.4-63.4l0,0H465.2
	c-35,0-63.4,28.4-63.4,63.4v0v601c0,35,28.4,63.4,63.4,63.4c0,0,0,0,0,0h232.1c35,0,63.4-28.4,63.4-63.4c0,0,0,0,0,0V250.9h4
	L764.7,172.9z"/>
<path id="e7549b14-e146-4c1f-8b4f-7638ef62aaf0" class="st3" d="M699.9,16.5h-30.3c4.7,11.5-0.8,24.6-12.3,29.3
	c-2.7,1.1-5.6,1.7-8.5,1.7h-133c-12.4,0-22.5-10.1-22.5-22.5c0-2.9,0.6-5.8,1.7-8.5h-28.3c-26.1,0-47.3,21.2-47.3,47.3v0v600.1
	c0,26.1,21.2,47.3,47.3,47.3h0h233.2c26.1,0,47.3-21.2,47.3-47.3v0v0l0,0V63.8C747.2,37.7,726,16.5,699.9,16.5L699.9,16.5
	L699.9,16.5L699.9,16.5z"/>
<circle id="f4a12a6a-3235-4aa9-87a4-fdfa38e5097e" class="st1" cx="583.7" cy="651.7" r="26"/>
<path class="st1" d="M478.2,411.3c-2.5,0-4.5,2.3-4.5,5.1s2,5.1,4.5,5.1h210.1c2.5,0,4.5-2.3,4.5-5.1s-2-5.1-4.5-5.1H478.2z"/>
<path class="st1" d="M478.2,531.3c-2.5,0-4.5,2.3-4.5,5.1s2,5.1,4.5,5.1h210.1c2.5,0,4.5-2.3,4.5-5.1s-2-5.1-4.5-5.1H478.2z"/>
<path class="st1" d="M478.2,441.8c-2.5,0-4.5,2.3-4.5,5.1s2,5.1,4.5,5.1h90.4c2.5,0,4.5-2.3,4.5-5.1s-2-5.1-4.5-5.1H478.2z"/>
<path class="st1" d="M478.2,470.9c-2.5,0-4.5,2.3-4.5,5.1s2,5.1,4.5,5.1h210.1c2.5,0,4.5-2.3,4.5-5.1s-2-5.1-4.5-5.1H478.2z"/>
<path class="st1" d="M478.2,501.5c-2.5,0-4.5,2.3-4.5,5.1s2,5.1,4.5,5.1h90.4c2.5,0,4.5-2.3,4.5-5.1s-2-5.1-4.5-5.1H478.2z"/>
<path class="st2" d="M517.9,179.6h130.8c3,0,5.4,2.4,5.5,5.5v136.2c0,3-2.4,5.4-5.5,5.5H517.9c-3,0-5.4-2.4-5.5-5.5V185.1
	C512.4,182.1,514.8,179.6,517.9,179.6z"/>
<path class="st3" d="M620.8,298.7c2,0,3.7-1.7,3.7-3.7c0-2-1.7-3.7-3.7-3.7l0,0h-75.1c-2,0-3.7,1.7-3.7,3.7c0,2,1.7,3.7,3.7,3.7
	H620.8z"/>
<path class="st3" d="M620.8,276.9c2,0,3.7-1.7,3.7-3.7c0-2-1.7-3.7-3.7-3.7h-75.1c-2,0-3.7,1.7-3.7,3.7c0,2,1.7,3.7,3.7,3.7H620.8z"
	/>
<path class="st3" d="M583.3,207.7c12.9,0,23.3,10.4,23.3,23.3c0,12.9-10.4,23.3-23.3,23.3c-12.9,0-23.3-10.4-23.3-23.3l0,0l0,0
	C560,218.2,570.4,207.7,583.3,207.7z"/>
<path class="st0" d="M286.1,444h-69.1c-3,0-5.4-2.4-5.4-5.4v-29.8c0-22.1,17.9-39.9,39.9-39.9s39.9,17.9,39.9,39.9v29.8
	C291.4,441.6,289,444,286.1,444z"/>
<ellipse transform="matrix(0.4797 -0.8775 0.8775 0.4797 -227.4617 442.2137)" class="st7" cx="259.1" cy="412.9" rx="29.3" ry="29.3"/>
<path class="st0" d="M300.9,411.8h-42.3l-0.4-6.1l-2.2,6.1h-6.5l-0.9-12l-4.3,12h-12.6v-0.6c0-17.4,14.2-31.6,31.6-31.6h6
	c17.4,0,31.6,14.2,31.6,31.6V411.8z"/>
<path class="st0" d="M258.2,449.5c-0.3,0-0.6,0-0.9-0.1l-31-5.5v-51.2h34.1l-0.8,1c-11.7,13.7-2.9,35.9,3.4,47.9
	c1,1.8,0.8,4-0.4,5.6C261.6,448.7,260,449.5,258.2,449.5z"/>
<path class="st0" d="M361.3,702.2l38.2,0h0c13.4,0,24.3,10.9,24.3,24.3v0.8l-62.5,0L361.3,702.2z"/>
</svg>
