<svg id="a1446b94-79a8-45dc-beee-b314ae1acdc1" xmlns="http://www.w3.org/2000/svg" viewBox="0 0 505.44 596.95"><defs><style>.cls-1{fill:#9f616a;}.cls-2{fill:#3f3d56;}.cls-3{fill:#fff;}.cls-4{fill:#6c63ff;}.cls-5{fill:#e5e5e5;}.cls-6{opacity:0.2;isolation:isolate;}</style></defs><title>undraw_Confirmed_re_sef7213</title><path class="cls-1" d="M146,501l-5,96s211.48-201.3,237.83-260.2-23.25-204.58-23.25-204.58l-110,60.44Z" transform="translate(-0.01 0)"/><path class="cls-1" d="M470.28,91.87,502.82,95s17.05,37.2-35.64,40.3Z" transform="translate(-0.01 0)"/><path class="cls-1" d="M470.28,149.22l32.54,3.1s17.05,37.19-35.64,40.29Z" transform="translate(-0.01 0)"/><path class="cls-1" d="M470.28,211.21l32.54,3.1s17.05,37.2-35.64,40.3Z" transform="translate(-0.01 0)"/><path class="cls-1" d="M461,273.21l32.54,3.1s17.05,37.2-35.64,40.3Z" transform="translate(-0.01 0)"/><path class="cls-2" d="M486.12,106.81h-2.47V39.16A39.15,39.15,0,0,0,444.5,0H301.17A39.16,39.16,0,0,0,262,39.16h0V410.32a39.16,39.16,0,0,0,39.16,39.16H444.5a39.15,39.15,0,0,0,39.15-39.16h0V155h2.47Z" transform="translate(-0.01 0)"/><path class="cls-3" d="M446.08,10.19H427.37A13.9,13.9,0,0,1,414.5,29.33H332.39a13.89,13.89,0,0,1-12.86-19.14H302.06a29.25,29.25,0,0,0-29.25,29.24h0V410.05a29.25,29.25,0,0,0,29.25,29.24h144a29.24,29.24,0,0,0,29.24-29.24h0V39.43a29.24,29.24,0,0,0-29.24-29.24Z" transform="translate(-0.01 0)"/><rect class="cls-4" x="343.2" y="114.02" width="61.71" height="14.89"/><rect class="cls-5" x="340.26" y="178.01" width="67.59" height="14.89"/><rect class="cls-5" x="298.63" y="210" width="150.85" height="14.89"/><rect class="cls-5" x="298.63" y="241.99" width="150.85" height="14.89"/><path class="cls-1" d="M0,551,173.48,353l6.2-127.09,65.1-108.5L263.37,71s43.4,4.65,7.75,93L256.4,211.21h0a216.75,216.75,0,0,1,20.15,91.25V410.78c0,25.51-121.55,164.44-135.69,185.67h0Z" transform="translate(-0.01 0)"/><polygon class="cls-6" points="258.26 126.64 245.32 120.28 245.76 119.38 257.71 125.25 275.76 77.93 276.7 78.29 258.26 126.64"/><rect class="cls-6" x="483.02" y="98" width="20.43" height="1" transform="translate(-3.66 176.56) rotate(-20.22)"/><rect class="cls-6" x="483.02" y="156" width="20.43" height="1" transform="translate(-23.71 180.13) rotate(-20.22)"/><rect class="cls-6" x="483.02" y="218" width="20.43" height="1" transform="translate(-45.14 183.95) rotate(-20.22)"/><rect class="cls-6" x="482.98" y="278.71" width="10.35" height="1" transform="translate(-72.76 238.7) rotate(-25.64)"/><ellipse class="cls-4" cx="373.98" cy="342.18" rx="43.24" ry="43.23"/><polygon class="cls-3" points="369.86 360.42 356.92 343.79 364.44 337.94 370.57 345.81 391.27 323.96 398.19 330.52 369.86 360.42"/></svg>